<svg xmlns="http://www.w3.org/2000/svg" enable-background="new 0 0 64 64" viewBox="0 0 64 64">
    <path fill="#231f20"
        d="M39.994,33.672l7.501-7.502c1.074,0.276,2.182,0.416,3.298,0.416c3.525,0,6.842-1.373,9.339-3.867C62.626,20.222,64,16.904,64,13.377c0-1.209-0.164-2.407-0.49-3.569c-0.092-0.322-0.259-0.609-0.503-0.859c-0.761-0.763-2.049-0.764-2.816-0.001l-6.563,6.565c-0.113-0.001-0.324-0.026-0.628-0.129l-0.413-0.136c-0.617-0.198-0.825-0.264-1.426-0.852l-0.502-0.502c-0.791-0.809-1.422-1.758-1.688-2.538c-0.103-0.304-0.129-0.516-0.13-0.629l6.569-6.567c0.76-0.765,0.758-2.053-0.013-2.822c-0.241-0.235-0.527-0.402-0.857-0.497c-1.155-0.324-2.354-0.488-3.563-0.488c-3.527,0-6.845,1.374-9.344,3.869c-2.493,2.496-3.866,5.813-3.866,9.338c0,1.115,0.14,2.222,0.416,3.298l-9.501,9.5c-0.999-0.998-8.09-8.09-9.497-9.497L18.251,12.2c-0.059-0.296-0.234-0.557-0.485-0.724L5.77,3.478C5.318,3.177,4.716,3.237,4.333,3.62L0.334,7.62C-0.05,8.004-0.11,8.605,0.191,9.057l7.997,11.996c0.167,0.251,0.428,0.426,0.724,0.485l4.661,0.933l9.497,9.497L3.753,51.285c-1.265,1.266-1.964,2.953-1.967,4.751c0,1.706,0.634,3.315,1.791,4.561L3.573,60.6c0.03,0.03,0.06,0.06,0.091,0.09c0.029,0.031,0.06,0.061,0.09,0.091l0.003-0.003c1.246,1.157,2.855,1.791,4.563,1.791c1.796-0.003,3.483-0.702,4.75-1.968l17.316-17.318l18.792,18.792c1.049,1.049,2.427,1.574,3.805,1.574c1.378,0,2.756-0.525,3.805-1.574l1.999-1.999c2.098-2.098,2.098-5.511,0-7.609L39.994,33.672z M14.941,20.616c-0.159-0.159-0.362-0.268-0.582-0.312l-4.536-0.908L2.605,8.57l2.678-2.679l10.826,7.218l0.908,4.536c0.029,0.146,0.087,0.285,0.169,0.408c0.063,0.095,0.071,0.103,9.884,9.915l-2.388,2.388L14.941,20.616z M11.459,58.988c-0.838,0.837-1.954,1.298-3.141,1.301c-1.139,0-2.215-0.429-3.042-1.211c-0.782-0.827-1.211-1.902-1.211-3.04c0.002-1.19,0.464-2.306,1.3-3.143l34.901-34.896c0.294-0.293,0.404-0.724,0.289-1.123l-0.086-0.298c-0.28-0.979-0.422-1.994-0.422-3.018c0-2.917,1.136-5.662,3.198-7.727c2.067-2.064,4.814-3.201,7.733-3.201c0.833,0,1.66,0.094,2.46,0.279l-6.369,6.367c-0.572,0.608-0.663,1.605-0.255,2.811c0.383,1.123,1.172,2.331,2.221,3.403l0.814-0.797l-0.806,0.805l0.516,0.516c0.947,0.927,1.504,1.137,2.334,1.403l0.376,0.123c1.206,0.408,2.201,0.316,2.834-0.28l6.342-6.343c0.185,0.803,0.279,1.628,0.279,2.459c0,2.919-1.137,5.665-3.2,7.732c-2.066,2.063-4.811,3.199-7.728,3.199c-1.024,0-2.039-0.142-3.015-0.421l-0.302-0.087c-0.399-0.118-0.829-0.005-1.123,0.289L11.459,58.988z M57.175,58.463l-1.999,1.999c-1.21,1.21-3.179,1.209-4.388,0L31.997,41.67l6.386-6.387l18.792,18.792C58.385,55.285,58.385,57.253,57.175,58.463z M38.506,40.182L53.084,54.76l-1.611,1.611L36.895,41.793L38.506,40.182z M7.659,54.064c-0.362,0.364-0.569,0.875-0.57,1.401c-0.001,0.532,0.21,1.046,0.569,1.401c0.376,0.379,0.876,0.588,1.41,0.588c0.532,0,1.031-0.206,1.406-0.581c0.377-0.377,0.584-0.876,0.584-1.405c0-0.531-0.208-1.03-0.584-1.407C9.725,53.313,8.424,53.304,7.659,54.064z M9.27,55.675c-0.106,0.105-0.3,0.106-0.408-0.003c-0.052-0.052-0.083-0.129-0.083-0.204c0-0.077,0.031-0.154,0.083-0.206c0.054-0.054,0.131-0.086,0.205-0.086c0.077,0,0.156,0.033,0.202,0.079c0.062,0.062,0.098,0.14,0.098,0.214C9.368,55.537,9.334,55.61,9.27,55.675z" />
</svg>