<svg xmlns="http://www.w3.org/2000/svg" enable-background="new 0 0 24 24" viewBox="0 0 24 24"><path d="M19.5,13c-0.276123,0-0.5,0.223877-0.5,0.5v1.9326172l-2.6523438-2.6523438c-0.9743042-0.9716187-2.5502319-0.9746704-3.5283203-0.0068359l-0.9247437,0.9169922l-2.703186-2.7061157c-0.9790039-0.9701538-2.557251-0.9692383-3.5351562,0.0020142L3,13.6425781V6.5C3.0009155,5.671936,3.671936,5.0009155,4.5,5h9C13.776123,5,14,4.776123,14,4.5S13.776123,4,13.5,4h-9C3.119812,4.0012817,2.0012817,5.119812,2,6.5v13c0.0012817,1.380188,1.119812,2.4987183,2.5,2.5h13c1.380188-0.0012817,2.4987183-1.119812,2.5-2.5v-6C20,13.223877,19.776123,13,19.5,13z M17.5,21h-13c-0.828064-0.0009155-1.4990845-0.671936-1.5-1.5v-4.4433594l3.3632812-3.3632812c0.5875244-0.5817871,1.5339355-0.5822754,2.1220703-0.0009766l9.2713013,9.2814941C17.6728516,20.9884644,17.5878906,20.9998779,17.5,21z M19,19.5c-0.0004272,0.3637695-0.135376,0.692749-0.3508911,0.9523926l-6.046936-6.0535889l0.9222412-0.9154053c0.5870361-0.5794678,1.531311-0.5777588,2.1162109,0.0039062L19,16.8466797V19.5z M22.8534546,6.1587524c-0.1918335-0.1986084-0.5083618-0.2041016-0.7069702-0.0122681L20,8.2930298V1.5C20,1.223877,19.776123,1,19.5,1S19,1.223877,19,1.5v6.7930298l-2.1465454-2.1464844c-0.1937256-0.1871948-0.5009155-0.1871948-0.6947021,0c-0.1986084,0.1918335-0.2041016,0.5083618-0.0122681,0.7069702l3,3C19.2401123,9.9474487,19.3673706,10.0001831,19.5,10c0.1326294,0.0001221,0.2598267-0.0525513,0.3534546-0.1464844l3-3C23.0406494,6.659729,23.0406494,6.3525391,22.8534546,6.1587524z"/></svg>